<svg width="32" height="32" viewBox="0 0 32 32" fill="none" xmlns="http://www.w3.org/2000/svg">
  <path
    d="M19.1774 7.90259C18.007 7.90259 17.1403 8.17362 16.4619 8.51597C16.3531 8.16094 15.9958 7.90101 15.5745 7.97867H10.4231C9.91379 7.90101 9.50119 8.27981 9.65829 8.77115V26.2057C9.50119 26.6495 9.91379 27.0299 10.4231 26.9982H15.5745C16.0838 27.0299 16.4964 26.6495 16.4964 26.1819L16.4947 15.6451C16.4929 15.6404 16.474 15.1363 16.821 14.7892C17.0989 14.5134 17.5771 14.3724 18.2383 14.3724C19.3397 14.3724 19.83 14.7861 20.013 15.7117V26.1819C19.8317 26.6495 20.2443 27.0299 20.7536 26.9982H26.183C26.6923 27.0299 27.1049 26.6495 26.9219 26.1819V15.3598C27.1032 9.85685 22.8339 7.90259 19.1774 7.90259ZM25.2594 25.4132H21.6755V15.7117C21.6755 13.8398 20.3583 12.6797 18.24 12.6797C17.0419 12.6797 16.1097 13.003 15.4675 13.6401C14.575 14.5277 14.644 15.653 14.8356 15.9035V25.4132H11.3449V9.59533H14.6526V10.1279C14.6513 10.2865 14.6987 10.4423 14.7895 10.5773C14.8802 10.7123 15.0106 10.8211 15.1657 10.8911C15.3207 10.9611 15.4942 10.9895 15.6661 10.9731C15.8379 10.9567 16.0013 10.8961 16.1373 10.7983L16.379 10.6271C17.0782 10.1215 17.8015 9.59691 19.1792 9.59691C20.6051 9.59691 25.2611 10.0138 25.2611 15.3614L25.2594 25.4132ZM4.47748 0C2.54051 0 0.966064 1.44548 0.966064 3.2238C0.966064 5.00212 2.54051 6.4476 4.47748 6.4476C6.41446 6.4476 7.9889 5.00212 7.9889 3.2238C7.9889 1.44548 6.41446 0 4.47748 0ZM4.47748 4.75487C3.55906 4.75487 2.80982 4.067 2.80982 3.2238C2.80982 2.3806 3.55906 1.69273 4.47748 1.69273C5.39591 1.69273 6.14514 2.3806 6.14514 3.2238C6.14514 4.067 5.39591 4.75487 4.47748 4.75487ZM6.94272 7.90101H1.81889C1.30961 7.90101 0.897011 8.27981 1.02476 8.77115V26.2057C0.897011 26.6495 1.30961 27.0299 1.81889 26.9982H6.94272C7.452 27.0299 7.8646 26.6495 7.8646 26.1819V8.74738C7.8646 8.5229 7.76747 8.30763 7.59459 8.1489C7.4217 7.99018 7.18722 7.90101 6.94272 7.90101ZM6.20384 25.4132H2.74076V9.59533H6.20384V25.4132Z"
    fill="white" />
</svg>