<svg width="34" height="34" viewBox="0 0 34 34" fill="none" xmlns="http://www.w3.org/2000/svg">
<path d="M30.5376 10.1957C30.3762 9.59591 30.0601 9.04906 29.6209 8.60987C29.1817 8.17068 28.6349 7.85455 28.0351 7.69313C26.396 7.05988 10.5166 6.74963 5.9096 7.71084C5.30974 7.87232 4.76284 8.18855 4.32364 8.62788C3.88444 9.0672 3.56836 9.61419 3.40705 10.2141C2.66685 13.4604 2.61089 20.4785 3.42547 23.7978C3.58689 24.3976 3.90301 24.9444 4.3422 25.3836C4.7814 25.8228 5.32824 26.1389 5.92801 26.3003C9.1743 27.0476 24.6075 27.1525 28.0535 26.3003C28.6533 26.1389 29.2001 25.8228 29.6393 25.3836C30.0785 24.9444 30.3946 24.3976 30.5561 23.7978C31.3451 20.2611 31.4011 13.6778 30.5376 10.1957Z" stroke="white" stroke-width="2" stroke-linecap="round" stroke-linejoin="round"/>
<path d="M21.6517 16.9966L14.2517 12.7529V21.2402L21.6517 16.9966Z" fill="white"/>
</svg>
