<svg width="32" height="33" viewBox="0 0 32 33" fill="none" xmlns="http://www.w3.org/2000/svg">
<path d="M9.33329 15.125L14.6666 2.75C15.7275 2.75 16.7449 3.1846 17.4951 3.95818C18.2452 4.73177 18.6666 5.78098 18.6666 6.875V12.375H26.2133C26.5998 12.3705 26.9827 12.4527 27.3354 12.6159C27.6881 12.7792 28.0021 13.0195 28.2558 13.3203C28.5094 13.6212 28.6966 13.9753 28.8044 14.3581C28.9122 14.7409 28.938 15.1434 28.88 15.5375L27.04 27.9125C26.9435 28.5682 26.6205 29.166 26.1305 29.5955C25.6405 30.0251 25.0164 30.2575 24.3733 30.25H9.33329M9.33329 15.125V30.25M9.33329 15.125H5.33329C4.62605 15.125 3.94777 15.4147 3.44767 15.9305C2.94758 16.4462 2.66663 17.1457 2.66663 17.875V27.5C2.66663 28.2293 2.94758 28.9288 3.44767 29.4445C3.94777 29.9603 4.62605 30.25 5.33329 30.25H9.33329" stroke="white" stroke-width="3" stroke-linecap="round" stroke-linejoin="round"/>
</svg>
