<svg width="102" height="32" viewBox="0 0 102 32" fill="none" xmlns="http://www.w3.org/2000/svg">
<g clip-path="url(#clip0_676_1149)">
<path d="M61.2847 26.4141H60.1324V31.9032H65.498V30.958H61.2847V26.4141Z" fill="white"/>
<path d="M71.7735 26.3154C69.3385 26.3154 67.6998 27.4667 67.6998 29.1585C67.6998 30.8504 69.337 32.0017 71.7735 32.0017C74.21 32.0017 75.8671 30.8608 75.8671 29.1585C75.8671 27.4563 74.21 26.3154 71.7735 26.3154ZM71.7735 31.0564C70.1471 31.0564 68.9242 30.3576 68.9242 29.1585C68.9242 27.9595 70.1364 27.2696 71.7735 27.2696C73.4106 27.2696 74.6443 27.9684 74.6443 29.1585C74.6443 30.3487 73.4106 31.0564 71.7735 31.0564Z" fill="white"/>
<path d="M78.0796 27.3578H80.6051V31.9032H81.7482V27.3578H84.2845V26.4141H78.0796V27.3578Z" fill="white"/>
<path d="M87.2242 31.9032H92.9351V30.958H88.3873V29.5513H92.1464V28.6076H88.3873V27.3488H92.9351V26.4141H87.2242V31.9032Z" fill="white"/>
<path d="M97.0165 27.8699C97.0165 27.2502 98.2593 27.2203 98.9866 27.2203C99.8857 27.2203 100.736 27.2696 101.523 27.4951L101.563 26.6006C100.906 26.4229 100.067 26.3154 98.9651 26.3154C97.7023 26.3154 95.9225 26.4827 95.9225 27.9386C95.9225 30.4666 100.904 28.8539 100.904 30.3292C100.904 30.9683 99.8228 31.0968 98.8224 31.0968C97.822 31.0968 96.7004 30.9788 95.8304 30.7623L95.7905 31.7165C96.6298 31.8942 97.7315 32.0017 98.8024 32.0017C100.278 32.0017 101.995 31.7463 101.995 30.28C101.995 27.6728 97.0134 29.2571 97.0134 27.8699H97.0165Z" fill="white"/>
<path d="M11.3649 21.3115C17.6587 21.3115 22.7896 18.3415 22.8019 11.2695H0C0.0122747 18.34 5.071 21.3115 11.3649 21.3115Z" fill="white"/>
<path d="M11.4278 0H0V10.1749C0 10.1839 0 10.1928 0 10.2003L11.4278 0L22.8019 10.1525V0H11.4278Z" fill="white"/>
<path d="M64.5268 0H60.1324V20.9366H64.5268V0Z" fill="white"/>
<path d="M101.998 0H97.6041V20.9366H101.998V0Z" fill="white"/>
<path d="M92.2079 20.9364V17.3721H82.0275L78.9189 20.9364H92.2079Z" fill="white"/>
<path d="M73.9477 20.9366L92.2079 0H69.7697V3.60168H84.1879L68.9611 20.9366H73.9477Z" fill="white"/>
<path d="M51.6506 0L42.5903 14.6695L33.5316 0H28.4421L42.5903 21.3114L56.74 0H51.6506Z" fill="white"/>
</g>
<defs>
<clipPath id="clip0_676_1149">
<rect width="102" height="32" fill="white"/>
</clipPath>
</defs>
</svg>
