<svg width="35" height="35" viewBox="0 0 35 35" fill="none" xmlns="http://www.w3.org/2000/svg">
  <g clip-path="url(#clip0_785_1144)">
    <path
      d="M0.746899 17.2901C0.746079 20.2308 1.52045 23.1021 2.99292 25.633L0.606079 34.2802L9.52452 31.9599C11.9912 33.2923 14.755 33.9905 17.5636 33.9907H17.571C26.8425 33.9907 34.3898 26.5046 34.3938 17.3033C34.3956 12.8446 32.6472 8.65189 29.4707 5.49755C26.2947 2.34348 22.0708 0.605551 17.5703 0.603516C8.2976 0.603516 0.750864 8.08917 0.747036 17.2901"
      fill="#1FAF38" />
    <path
      d="M0.146289 17.2851C0.145332 20.3316 0.947461 23.3057 2.47242 25.9271L0 34.8843L9.23822 32.4808C11.7837 33.8579 14.6496 34.5839 17.5658 34.585H17.5733C27.1775 34.585 34.9959 26.8297 35 17.299C35.0016 12.68 33.1904 8.33665 29.9004 5.0693C26.61 1.80236 22.235 0.00189922 17.5733 0C7.96742 0 0.150117 7.75426 0.146289 17.2851ZM5.64799 25.4757L5.30305 24.9323C3.85301 22.6446 3.08766 20.0009 3.08875 17.2862C3.09176 9.3644 9.58918 2.91938 17.5788 2.91938C21.4479 2.92101 25.0841 4.4176 27.819 7.13295C30.5538 9.84857 32.0586 13.4585 32.0577 17.2979C32.0541 25.2197 25.5566 31.6655 17.5733 31.6655H17.5675C14.9681 31.6641 12.4187 30.9715 10.1954 29.6625L9.66629 29.3512L4.18414 30.7773L5.64799 25.4757Z"
      fill="url(#paint0_linear_785_1144)" />
    <path
      d="M13.2177 10.0593C12.8915 9.33992 12.5482 9.3254 12.238 9.31279C11.984 9.30193 11.6936 9.30275 11.4034 9.30275C11.1131 9.30275 10.6412 9.41114 10.2424 9.84321C9.84321 10.2757 8.71829 11.3208 8.71829 13.4464C8.71829 15.5722 10.2787 17.6265 10.4962 17.9151C10.714 18.2031 13.5085 22.7048 17.9344 24.4366C21.6126 25.8758 22.3612 25.5896 23.1595 25.5174C23.9579 25.4455 25.7358 24.4725 26.0985 23.4636C26.4615 22.4549 26.4615 21.5902 26.3527 21.4095C26.2439 21.2295 25.9535 21.1214 25.518 20.9054C25.0824 20.6893 22.9417 19.644 22.5426 19.4998C22.1434 19.3558 21.8531 19.2839 21.5627 19.7165C21.2724 20.1484 20.4385 21.1214 20.1843 21.4095C19.9305 21.6983 19.6763 21.7343 19.241 21.5182C18.8053 21.3014 17.4029 20.8457 15.7392 19.3739C14.4448 18.2287 13.5709 16.8145 13.3168 16.3818C13.0628 15.9499 13.2896 15.7158 13.508 15.5005C13.7036 15.3069 13.9435 14.9959 14.1615 14.7438C14.3786 14.4914 14.451 14.3114 14.5962 14.0233C14.7416 13.7349 14.6688 13.4825 14.5601 13.2664C14.451 13.0503 13.6049 10.9136 13.2177 10.0593Z"
      fill="white" />
  </g>
  <defs>
    <linearGradient id="paint0_linear_785_1144" x1="1750" y1="3488.43" x2="1750" y2="0"
      gradientUnits="userSpaceOnUse">
      <stop stop-color="#F9F9F9" />
      <stop offset="1" stop-color="white" />
    </linearGradient>
    <clipPath id="clip0_785_1144">
      <rect width="35" height="35" fill="white" />
    </clipPath>
  </defs>
</svg>